<svg width="60" height="60" viewBox="0 0 60 60" fill="none" xmlns="http://www.w3.org/2000/svg">
  <defs>
    <linearGradient id="grad" x1="0%" y1="0%" x2="100%" y2="100%">
      <stop offset="0%" style="stop-color:#6366F1;stop-opacity:1" />
      <stop offset="100%" style="stop-color:#8B5CF6;stop-opacity:1" />
    </linearGradient>
  </defs>
  <rect width="60" height="60" rx="12" fill="url(#grad)"/>
  <!-- Brain/Knowledge icon -->
  <path d="M30 12C25 12 20 15 18 19C15 20 12 23 12 27C12 32 16 36 21 37C22 40 25 42 28 42C30 42 32 41 33 39C35 40 37 40 39 39C43 38 46 35 46 31C46 27 43 24 40 22C38 18 34 15 30 15V12Z" fill="white" opacity="0.9"/>
  <!-- Search/Magnifying glass -->
  <circle cx="35" cy="35" r="8" fill="none" stroke="white" stroke-width="2.5" stroke-linecap="round"/>
  <path d="M41 41L47 47" stroke="white" stroke-width="2.5" stroke-linecap="round"/>
  <!-- Sparkles/Stars for AI -->
  <circle cx="20" cy="20" r="1.5" fill="white"/>
  <circle cx="45" cy="18" r="1" fill="white"/>
  <circle cx="18" cy="45" r="1.5" fill="white"/>
</svg>
